<?xml version="1.0" encoding="UTF-8"?>
<!DOCTYPE svg PUBLIC "-//W3C//DTD SVG 1.1//EN" "http://www.w3.org/Graphics/SVG/1.1/DTD/svg11.dtd">
<svg version="1.1" xmlns="http://www.w3.org/2000/svg" xmlns:xlink="http://www.w3.org/1999/xlink" width="345" height="203"  xml:space="preserve" id="puzzle">
    <!-- Generated by PaintCode (www.paintcodeapp.com) -->
    <g id="puzzle-group" transform="scale(1, 0.78)" >
        <path id="puzzle-bezier5" stroke="rgb(0, 0, 0)" stroke-width="4" stroke-miterlimit="10" fill="none" d="M 35.31,36.51 C 35.31,36.51 186.19,82.33 138.86,36.51 91.52,-9.31 251.28,-9.31 203.94,36.51 156.61,82.33 316.36,36.51 316.36,36.51 316.36,36.51 274.95,147.98 313.41,98.11 351.86,48.24 351.86,212.51 313.41,162.64 274.95,112.78 316.36,224.24 316.36,224.24 316.36,224.24 159.57,187.23 206.9,227.18 254.24,267.13 97.44,267.13 141.82,227.18 186.19,187.23 35.31,224.24 35.31,224.24 35.31,224.24 76.73,112.78 35.31,162.64 -6.1,212.51 -6.1,48.24 35.31,98.11 76.73,147.98 35.31,36.51 35.31,36.51 Z M 35.31,36.51" />
    </g>
    <g id="puzzle-group2" clip-path="url(#puzzle-rectangle)" transform="translate(58, 66) scale(0.8, 0.8)" >
        <clipPath id="puzzle-rectangle">
            <rect x="0" y="-90" width="293" height="90"  transform="translate(0, 90)" />
        </clipPath>
        <g id="puzzle-group3">
            <g id="puzzle-group4" clip-path="url(#puzzle-rectangle3)" transform="translate(57, 32) scale(0.36, 0.34)" >
                <clipPath id="puzzle-rectangle3">
                    <rect x="0" y="0" width="145" height="154" />
                </clipPath>
                <g id="puzzle-group5">
                    <g id="puzzle-group6">
                        <circle id="puzzle-oval" stroke="none" fill="rgb(0, 0, 0)" cx="71.5" cy="106.5" r="7.5" />
                        <rect id="puzzle-rectangle2" stroke="rgb(0, 0, 0)" stroke-width="5" fill="rgb(0, 0, 0)" x="71.5" y="8.5" width="1" height="36" />
                        <rect id="puzzle-rectangle4" stroke="rgb(0, 0, 0)" stroke-width="5" fill="rgb(0, 0, 0)" x="0" y="0" width="1" height="36"  transform="translate(105.81, 14.33) rotate(20)" />
                        <rect id="puzzle-rectangle5" stroke="rgb(0, 0, 0)" stroke-width="5" fill="rgb(0, 0, 0)" x="0" y="0" width="1" height="36"  transform="translate(10.5, 32.5) rotate(-40)" />
                        <rect id="puzzle-rectangle6" stroke="rgb(0, 0, 0)" stroke-width="5" fill="rgb(0, 0, 0)" x="0" y="0" width="1" height="36"  transform="translate(39.5, 14.67) rotate(-20)" />
                        <rect id="puzzle-rectangle7" stroke="rgb(0, 0, 0)" stroke-width="5" fill="rgb(0, 0, 0)" x="0" y="0" width="1" height="36"  transform="translate(133.5, 32.5) rotate(40)" />
                    </g>
                </g>
            </g>
            <g id="puzzle-group7" transform="translate(231, 54.3) scale(0.34, 0.31)" >
                <g id="puzzle-fingerprint2group">
                    <g id="puzzle-fingerprint2group2">
                        <g id="puzzle-fingerprint2group3">
                            <path id="puzzle-fingerprint2bezier" stroke="rgb(0, 0, 0)" stroke-width="2" stroke-miterlimit="4" fill="rgb(0, 0, 0)" d="M 18.8,12.8 C 33.17,4.49 51.45,4.01 66.66,10.35 69.27,11.81 76.2,15.09 74.57,9.25 68.19,5.47 60.81,3.38 53.49,2.21 40.93,0.41 27.67,2.62 16.6,8.9 14.1,10.36 16.26,14.32 18.8,12.8 Z M 18.8,12.8" />
                        </g>
                    </g>
                    <g id="puzzle-fingerprint2group4">
                        <g id="puzzle-fingerprint2group5">
                            <path id="puzzle-fingerprint2bezier2" stroke="rgb(0, 0, 0)" stroke-width="2" stroke-miterlimit="4" fill="rgb(0, 0, 0)" d="M 13.7,78.9 C 12.33,75.52 11.69,71.89 11.16,68.3 10.79,66.12 10.62,61.21 11.03,58 11.54,53.01 13.42,47.02 16.78,42.68 25.13,31.85 40.05,26.98 53.25,30.32 63.17,32.41 72.13,38.93 76.39,48.24 77.99,51.07 79.15,54.37 79.46,57.2 79.59,59.27 79.74,61.8 79.48,63.41 78.36,71.17 67.25,73.39 62.21,67.99 57.99,64.13 60.86,59.83 57.89,55.04 52.76,46.03 37.46,45.51 32.59,55.05 28.52,63.09 31.62,72.67 35.88,79.96 41.1,88.4 50.02,94.31 59.57,96.61 64.95,93.04 56.36,90.81 53.54,89.58 43.81,85.23 36.55,75.75 35.4,65.1 34.28,60.5 36.93,53.76 42.47,52.81 48.14,51.37 55.4,55.18 55.12,61.61 55.11,64.98 56.58,68.99 59.68,71.53 66.64,77.95 79.95,75.86 83.27,66.54 86.68,56.71 82.15,45.98 75.83,38.38 63.82,23.71 40.77,20.41 24.69,30.12 14.83,35.58 8.04,45.94 7.05,57.17 6.29,65.12 7.16,73.44 10.27,80.81 11.64,82.85 14.56,81.08 13.7,78.9 Z M 13.7,78.9" />
                        </g>
                    </g>
                    <g id="puzzle-fingerprint2group6">
                        <g id="puzzle-fingerprint2group7">
                            <path id="puzzle-fingerprint2bezier3" stroke="rgb(0, 0, 0)" stroke-width="2" stroke-miterlimit="4" fill="rgb(0, 0, 0)" d="M 6.5,37.1 C 8.22,34.63 11.38,31.17 14.51,28.54 24.13,20.37 37.09,16.66 49.6,17.9 61.8,18.9 73.46,24.85 81.24,34.36 82.3,37.03 87.1,40.47 87.61,35.62 83.49,28.79 77.1,23.34 70.18,19.41 57.6,12.55 42.15,11.42 28.53,15.64 18.27,19.18 8.9,25.84 2.7,34.8 0.89,37.25 5.1,39.61 6.5,37.1 Z M 6.5,37.1" />
                        </g>
                    </g>
                    <g id="puzzle-fingerprint2group8">
                        <g id="puzzle-fingerprint2group9">
                            <path id="puzzle-fingerprint2bezier4" stroke="rgb(0, 0, 0)" stroke-width="2" stroke-miterlimit="4" fill="rgb(0, 0, 0)" d="M 42.5,61.6 C 42.6,73.71 52.41,85.65 64.89,86.27 68.27,86.11 77.62,87.81 75.34,82.06 71.14,80.67 66.12,82.78 61.72,81.05 56.46,79.73 52.41,75.93 49.97,71.45 48.58,69.09 47.34,65.42 47.1,63.04 48.03,59.61 43.36,57.58 42.5,61.6 Z M 42.5,61.6" />
                        </g>
                    </g>
                    <g id="puzzle-fingerprint2group10">
                        <g id="puzzle-fingerprint2group11">
                            <path id="puzzle-fingerprint2bezier5" stroke="rgb(0, 0, 0)" stroke-width="2" stroke-miterlimit="4" fill="rgb(0, 0, 0)" d="M 71.7,61.8 C 72.04,49.8 62.46,38.77 50.72,36.76 37.11,33.54 21.43,42.58 18.78,56.59 16,70.64 22.62,85.18 32.7,94.8 36.51,97.27 37.8,91.17 34.2,89.87 26.25,81.36 20.77,69.28 23.1,57.5 25.5,45.76 38.95,38.25 50.32,41.5 58.93,43.25 65.83,50.77 66.8,59.5 65.63,61.88 69.91,67.33 71.7,61.8 Z M 71.7,61.8" />
                        </g>
                    </g>
                </g>
            </g>
            
            <text  fill="rgb(0, 0, 0)" font-family="MonaLisaSolidITCTT, 'Mona Lisa Solid ITC TT', sans-serif" font-size="100" x="266.3" y="2" text-anchor="end"><tspan x="288.5" y="83">l</tspan></text>
            
            <text  fill="rgb(0, 0, 0)" font-family="MonaLisaSolidITCTT, 'Mona Lisa Solid ITC TT', sans-serif" font-size="100" x="3.5" y="2"><tspan x="3.5" y="83">biomev</tspan></text>
        </g>
    </g>
</svg>
