<?xml version="1.0" encoding="UTF-8"?>
<!DOCTYPE svg PUBLIC "-//W3C//DTD SVG 1.1//EN" "http://www.w3.org/Graphics/SVG/1.1/DTD/svg11.dtd">
<svg version="1.1" xmlns="http://www.w3.org/2000/svg" xmlns:xlink="http://www.w3.org/1999/xlink" width="345" height="203"  xml:space="preserve" id="puzzle">
    <!-- Generated by PaintCode (www.paintcodeapp.com) -->
    <g id="puzzle-group" transform="scale(1, 0.78)" >
        <path id="puzzle-bezier5" stroke="rgb(0, 0, 0)" stroke-width="4" stroke-miterlimit="10" fill="none" d="M 35.31,36.51 C 35.31,36.51 186.19,82.33 138.86,36.51 91.52,-9.31 251.28,-9.31 203.94,36.51 156.61,82.33 316.36,36.51 316.36,36.51 316.36,36.51 274.95,147.98 313.41,98.11 351.86,48.24 351.86,212.51 313.41,162.64 274.95,112.78 316.36,224.24 316.36,224.24 316.36,224.24 159.57,187.23 206.9,227.18 254.24,267.13 97.44,267.13 141.82,227.18 186.19,187.23 35.31,224.24 35.31,224.24 35.31,224.24 76.73,112.78 35.31,162.64 -6.1,212.51 -6.1,48.24 35.31,98.11 76.73,147.98 35.31,36.51 35.31,36.51 Z M 35.31,36.51" />
    </g>
    <g id="puzzle-group2" transform="translate(58, 66) scale(0.8, 0.8)" >
        <g id="puzzle-group3">
            <g id="puzzle-group4" clip-path="url(#puzzle-rectangle3)" transform="translate(57, 32) scale(0.36, 0.34)" >
                <clipPath id="puzzle-rectangle3">
                    <rect x="0" y="0" width="145" height="154" />
                </clipPath>
                <g id="puzzle-group5">
                    <g id="puzzle-group6">
                        <circle id="puzzle-oval" stroke="none" fill="rgb(0, 0, 0)" cx="71.5" cy="106.5" r="7.5" />
                        <rect id="puzzle-rectangle" stroke="rgb(0, 0, 0)" stroke-width="5" fill="rgb(0, 0, 0)" x="71.5" y="8.5" width="1" height="36" />
                        <rect id="puzzle-rectangle2" stroke="rgb(0, 0, 0)" stroke-width="5" fill="rgb(0, 0, 0)" x="0" y="0" width="1" height="36"  transform="translate(105.81, 14.33) rotate(20)" />
                        <rect id="puzzle-rectangle4" stroke="rgb(0, 0, 0)" stroke-width="5" fill="rgb(0, 0, 0)" x="0" y="0" width="1" height="36"  transform="translate(10.5, 32.5) rotate(-40)" />
                        <rect id="puzzle-rectangle5" stroke="rgb(0, 0, 0)" stroke-width="5" fill="rgb(0, 0, 0)" x="0" y="0" width="1" height="36"  transform="translate(39.5, 14.67) rotate(-20)" />
                        <rect id="puzzle-rectangle6" stroke="rgb(0, 0, 0)" stroke-width="5" fill="rgb(0, 0, 0)" x="0" y="0" width="1" height="36"  transform="translate(133.5, 32.5) rotate(40)" />
                    </g>
                </g>
            </g>
            <g id="puzzle-group7" transform="translate(231, 54.3) scale(0.34, 0.31)" >
                <g id="puzzle-fingerprint2group">
                    <g id="puzzle-fingerprint2group2">
                        <g id="puzzle-fingerprint2group3">
                            <path id="puzzle-fingerprint2bezier" stroke="rgb(0, 0, 0)" stroke-width="2" stroke-miterlimit="4" fill="rgb(0, 0, 0)" d="M 18.8,12.8 C 33.17,4.49 51.45,4.01 66.66,10.35 69.27,11.81 76.2,15.09 74.57,9.25 68.19,5.47 60.81,3.38 53.49,2.21 40.93,0.41 27.67,2.62 16.6,8.9 14.1,10.36 16.26,14.32 18.8,12.8 Z M 18.8,12.8" />
                        </g>
                    </g>
                    <g id="puzzle-fingerprint2group4">
                        <g id="puzzle-fingerprint2group5">
                            <path id="puzzle-fingerprint2bezier2" stroke="rgb(0, 0, 0)" stroke-width="2" stroke-miterlimit="4" fill="rgb(0, 0, 0)" d="M 13.7,78.9 C 12.33,75.52 11.69,71.89 11.16,68.3 10.79,66.12 10.62,61.21 11.03,58 11.54,53.01 13.42,47.02 16.78,42.68 25.13,31.85 40.05,26.98 53.25,30.32 63.17,32.41 72.13,38.93 76.39,48.24 77.99,51.07 79.15,54.37 79.46,57.2 79.59,59.27 79.74,61.8 79.48,63.41 78.36,71.17 67.25,73.39 62.21,67.99 57.99,64.13 60.86,59.83 57.89,55.04 52.76,46.03 37.46,45.51 32.59,55.05 28.52,63.09 31.62,72.67 35.88,79.96 41.1,88.4 50.02,94.31 59.57,96.61 64.95,93.04 56.36,90.81 53.54,89.58 43.81,85.23 36.55,75.75 35.4,65.1 34.28,60.5 36.93,53.76 42.47,52.81 48.14,51.37 55.4,55.18 55.12,61.61 55.11,64.98 56.58,68.99 59.68,71.53 66.64,77.95 79.95,75.86 83.27,66.54 86.68,56.71 82.15,45.98 75.83,38.38 63.82,23.71 40.77,20.41 24.69,30.12 14.83,35.58 8.04,45.94 7.05,57.17 6.29,65.12 7.16,73.44 10.27,80.81 11.64,82.85 14.56,81.08 13.7,78.9 Z M 13.7,78.9" />
                        </g>
                    </g>
                    <g id="puzzle-fingerprint2group6">
                        <g id="puzzle-fingerprint2group7">
                            <path id="puzzle-fingerprint2bezier3" stroke="rgb(0, 0, 0)" stroke-width="2" stroke-miterlimit="4" fill="rgb(0, 0, 0)" d="M 6.5,37.1 C 8.22,34.63 11.38,31.17 14.51,28.54 24.13,20.37 37.09,16.66 49.6,17.9 61.8,18.9 73.46,24.85 81.24,34.36 82.3,37.03 87.1,40.47 87.61,35.62 83.49,28.79 77.1,23.34 70.18,19.41 57.6,12.55 42.15,11.42 28.53,15.64 18.27,19.18 8.9,25.84 2.7,34.8 0.89,37.25 5.1,39.61 6.5,37.1 Z M 6.5,37.1" />
                        </g>
                    </g>
                    <g id="puzzle-fingerprint2group8">
                        <g id="puzzle-fingerprint2group9">
                            <path id="puzzle-fingerprint2bezier4" stroke="rgb(0, 0, 0)" stroke-width="2" stroke-miterlimit="4" fill="rgb(0, 0, 0)" d="M 42.5,61.6 C 42.6,73.71 52.41,85.65 64.89,86.27 68.27,86.11 77.62,87.81 75.34,82.06 71.14,80.67 66.12,82.78 61.72,81.05 56.46,79.73 52.41,75.93 49.97,71.45 48.58,69.09 47.34,65.42 47.1,63.04 48.03,59.61 43.36,57.58 42.5,61.6 Z M 42.5,61.6" />
                        </g>
                    </g>
                    <g id="puzzle-fingerprint2group10">
                        <g id="puzzle-fingerprint2group11">
                            <path id="puzzle-fingerprint2bezier5" stroke="rgb(0, 0, 0)" stroke-width="2" stroke-miterlimit="4" fill="rgb(0, 0, 0)" d="M 71.7,61.8 C 72.04,49.8 62.46,38.77 50.72,36.76 37.11,33.54 21.43,42.58 18.78,56.59 16,70.64 22.62,85.18 32.7,94.8 36.51,97.27 37.8,91.17 34.2,89.87 26.25,81.36 20.77,69.28 23.1,57.5 25.5,45.76 38.95,38.25 50.32,41.5 58.93,43.25 65.83,50.77 66.8,59.5 65.63,61.88 69.91,67.33 71.7,61.8 Z M 71.7,61.8" />
                        </g>
                    </g>
                </g>
            </g>
            <path id="puzzle-l" stroke="none" fill="rgb(0, 0, 0)" d="M 287.3,83 L 267.5,83 267.5,81.4 273,81.4 273,6.4 267.5,6.4 267.5,4.8 281.7,4.8 281.7,81.4 287.3,81.4 287.3,83 Z M 287.3,83" />
            <path id="puzzle-biomev" stroke="none" fill="rgb(0, 0, 0)" d="M 39.3,67.8 C 39.3,72.27 37.7,76.05 34.5,79.15 31.3,82.25 27.43,83.8 22.9,83.8 20.37,83.8 17.85,83.2 15.35,82 12.85,80.8 11.07,79.33 10,77.6 9.33,76.47 8.92,75.33 8.75,74.2 8.58,73.07 8.5,70.6 8.5,66.8 L 8.5,6.4 3,6.4 3,4.8 17.2,4.8 17.2,59.6 C 19.73,55.67 22.83,53.7 26.5,53.7 30.1,53.7 33.13,55.07 35.6,57.8 38.07,60.53 39.3,63.87 39.3,67.8 Z M 29.6,71.1 C 29.6,63.23 29.4,58.65 29,57.35 28.6,56.05 27.63,55.4 26.1,55.4 22.77,55.4 19.8,57.8 17.2,62.6 L 17.2,80.3 C 19,81.5 20.87,82.1 22.8,82.1 25.4,82.1 27.18,81.32 28.15,79.75 29.12,78.18 29.6,75.3 29.6,71.1 Z M 57.2,28.5 C 55.4,33.77 54.5,40.3 54.5,48.1 L 54.5,50.1 52.9,50.1 52.9,48.1 C 52.9,40.23 52,33.7 50.2,28.5 L 57.2,28.5 Z M 63.4,83 L 43.6,83 43.6,81.4 49.1,81.4 49.1,56.1 43.6,56.1 43.6,54.5 60.1,54.5 60.1,56.1 57.8,56.1 57.8,81.4 63.4,81.4 63.4,83 Z M 98.9,68.8 C 98.9,73.33 97.47,76.97 94.6,79.7 91.73,82.43 87.93,83.8 83.2,83.8 78.33,83.8 74.47,82.47 71.6,79.8 68.73,77.13 67.3,73.53 67.3,69 67.3,64.47 68.77,60.78 71.7,57.95 74.63,55.12 78.47,53.7 83.2,53.7 87.73,53.7 91.48,55.13 94.45,58 97.42,60.87 98.9,64.47 98.9,68.8 Z M 89.2,71.7 C 89.2,63.63 88.78,58.88 87.95,57.45 87.12,56.02 85.4,55.3 82.8,55.3 80.4,55.3 78.8,56.18 78,57.95 77.2,59.72 76.8,63.17 76.8,68.3 76.8,73.17 76.9,76.1 77.1,77.1 77.77,80.43 79.57,82.1 82.5,82.1 85.1,82.1 86.87,81.37 87.8,79.9 88.73,78.43 89.2,75.7 89.2,71.7 Z M 160.5,83 L 146.2,83 146.2,59.1 C 146.2,56.77 145.7,55.6 144.7,55.6 143.43,55.6 141.95,56.57 140.25,58.5 138.55,60.43 137.1,62.83 135.9,65.7 L 135.9,81.4 141.4,81.4 141.4,83 127.2,83 127.2,59.1 C 127.2,56.77 126.8,55.6 126,55.6 124.6,55.6 122.83,56.8 120.7,59.2 119.03,61 117.8,63.33 117,66.2 L 117,81.4 122.6,81.4 122.6,83 102.8,83 102.8,81.4 108.3,81.4 108.3,56.1 102.8,56.1 102.8,54.5 117,54.5 117,61.4 C 120.07,56.27 123.53,53.7 127.4,53.7 132.13,53.7 134.97,56.43 135.9,61.9 138.83,56.43 142.37,53.7 146.5,53.7 149.03,53.7 151.07,54.63 152.6,56.5 154.13,58.37 154.9,60.83 154.9,63.9 L 154.9,81.4 160.5,81.4 160.5,83 Z M 193.2,78.3 C 188.8,81.97 184.07,83.8 179,83.8 174.53,83.8 170.83,82.4 167.9,79.6 164.97,76.8 163.5,73.27 163.5,69 163.5,64.73 165,61.12 168,58.15 171,55.18 174.67,53.7 179,53.7 183.07,53.7 186.27,54.87 188.6,57.2 190.93,59.53 192.17,62.77 192.3,66.9 L 173.2,66.9 C 173.13,68.1 173.1,69.6 173.1,71.4 173.1,75.67 173.5,78.52 174.3,79.95 175.1,81.38 176.73,82.1 179.2,82.1 184.4,82.1 188.77,79.63 192.3,74.7 L 193.2,74.7 193.2,78.3 Z M 187,63.9 C 187,58.17 184.7,55.3 180.1,55.3 177.77,55.3 176.1,55.9 175.1,57.1 174.1,58.3 173.5,60.43 173.3,63.5 L 173.2,65.3 186.9,65.3 C 186.97,64.83 187,64.37 187,63.9 Z M 229.9,56.1 L 225.3,56.1 C 222.97,59.83 219.97,65.93 216.3,74.4 L 211.9,84.6 197.9,56.1 193.5,56.1 193.5,54.5 211.9,54.5 211.9,56.1 207.6,56.1 215.7,72.3 C 218.37,66.63 219.73,61.23 219.8,56.1 L 216.3,56.1 216.3,54.5 229.9,54.5 229.9,56.1 Z M 229.9,56.1" />
        </g>
    </g>
</svg>
